<svg xmlns="http://www.w3.org/2000/svg" viewBox="0 0 176.497 120.36">
	<circle cx="88.378" cy="60.388" r="55.025" fill="#fff6e9" fill-rule="evenodd"/>
	<path fill="#ff1986" d="M98.963 12.19c-.45.01-.866.238-1.19.797-.377.847-.565 1.978-1.507 2.166-8.288.471-16.858 1.225-23.545 4.615-4.333 2.26-3.861 8.382-1.978 11.96 1.036 2.167 3.485 1.696 3.485-.47.189-1.413 2.73-1.978 3.767-2.26 4.332-1.507 8.853-2.166 13.373-2.826-9.7 20.155-17.234 39.651-24.58 59.523-.377.847.188 1.978.659 2.637 1.318 1.884 3.107 3.108 5.368 4.05 2.166.942 3.485-1.413 4.05-3.58 7.629-21.85 16.482-43.134 25.523-63.666 6.687-.282 18.083 0 19.59.189 1.507.094 2.355-.848 3.108-1.884.942-1.695 3.108-8.665-.189-8.665-7.252-.941-14.598-.659-21.85-.189-.564.094-.849-.095-1.225-.47-.712-.907-1.87-1.947-2.86-1.927zm-77.32 5.481c-1.368.006-2.579.644-3.282 2.32v.098c-3.12 10.428-5.849 24.95 3.995 33.235-.78 1.56-1.56 3.119-2.242 4.58L9.881 82.37c-.585 1.656-1.17 3.313-1.852 4.775-.585 1.365-.39 2.34.39 3.217 1.754 1.754 3.898 2.826 6.53 2.924 2.144.194 2.144-.78 3.216-2.34a286.888 286.888 0 003.12-8.284c3.978-9.253 8.495-21.294 12.28-29.338 7.7-7.894 13.45-17.641 20.273-26.218 2.73-4.191 1.56-6.043-3.801-7.992-2.729-.293-3.704.293-5.459 2.632-6.14 7.992-11.208 16.568-17.64 24.365-2.437-6.042-1.268-13.548.584-20.273.487-1.656 2.34-1.851 1.267-4.093-1.343-1.791-4.533-4.085-7.146-4.074zM66.707 32.87c-3.356.056-6.771 3.256-9.008 5.13-12.422 11.232-26.705 32.135-31.912 47.384-.446 1.86-.818 3.199.595 4.76.967.82 6.324 3.795 6.77 1.042.595-3.05 2.009-6.174 3.422-9.149 1.264 0 1.339-1.264.967-2.306-1.19-4.463 15.25-7.885 17.778-5.877-1.19 4.463-2.306 8.927-3.496 13.39-.224 1.19.595 1.86 1.636 2.603 1.563.967 5.58 2.38 6.695-.223 1.34-5.951 2.827-11.828 4.613-17.63 2.677-9.224 5.727-18.3 8.33-28.49.82-4.613-.446-8.108-4.09-10.117a4.879 4.879 0 00-2.3-.518zm57.151.331c-3.356.057-6.771 3.257-9.007 5.13-12.423 11.233-26.706 32.136-31.912 47.385-.447 1.86-.82 3.2.595 4.761.966.819 6.322 3.794 6.769 1.042.595-3.05 2.008-6.175 3.421-9.15 1.265 0 1.34-1.265.968-2.306-1.19-4.463 15.249-7.885 17.778-5.876-1.19 4.463-2.306 8.926-3.497 13.39-.223 1.19.596 1.86 1.637 2.603 1.562.967 5.58 2.38 6.695-.224 1.339-5.95 2.827-11.827 4.612-17.63 2.678-9.223 5.728-18.298 8.331-28.49.818-4.612-.446-8.108-4.09-10.116a4.882 4.882 0 00-2.3-.519zm34.014.18c-2.331.038-4.733.648-6.866 1.627-7.83 3.442-20.395 11.359-21.771 21.255-.173 4.82 1.549 8.863 5.249 11.961 4.475 3.959 11.445 5.163 17.124 8.691-1.979 2.582-5.249 3.615-8.519 4.045-4.302.603-12.133 1.463-16.178-1.29-2.151-1.55-2.065 2.581-1.807 3.872.69 3.442 2.926 5.507 6.196 6.626 7.143 1.72 16.522 1.635 23.062-2.926 4.991-4.216 3.96-11.1-.258-16.178-4.56-5.507-12.564-7.056-19.018-10.412 3.098-7.831 21.513-20.481 28.398-17.555-.603 1.376-1.549 2.495-2.581 3.527-2.754 2.84-5.938 5.078-9.553 6.627-.774.343-1.118 1.033-1.204 1.979 0 2.496.774 4.647 2.323 6.54.431.775 1.55 1.033 2.41.775 4.56-1.98 8.433-4.905 11.445-8.864 3.786-4.388 3.442-10.842.258-16.178-2.044-3.014-5.302-4.178-8.71-4.122zm-92.585 9.603c-2.603 7.588-5.282 15.993-7.96 23.58-3.496-1.785-7.661-1.413-11.752-1.115C51.45 57.86 58.22 48.042 65.287 42.984zm57.151.332c-2.604 7.588-5.282 15.993-7.96 23.58-3.496-1.785-7.661-1.413-11.753-1.115 5.877-7.588 12.646-17.407 19.713-22.465z"/>
</svg>
