<svg id="Ebene_1" data-name="Ebene 1" xmlns="http://www.w3.org/2000/svg" viewBox="0 0 300 300"><rect x="-1.12" width="301.12" height="301.12" style="fill:#2f2524"/><path d="M35.6,145.37V46.1H75.31V65.45H55.57V81.24H74.3v19.12H55.57v45Z" style="fill:#fff"/><path d="M81.69,145.37V46.1h30.46q7.6,0,11.5,3.47a17.35,17.35,0,0,1,5.22,9.7,71.34,71.34,0,0,1,1.33,14.64q0,8.11-2.06,13a11.92,11.92,0,0,1-7.76,6.71A8.89,8.89,0,0,1,127,98.25a21,21,0,0,1,1.89,9.56v37.56H109.27V106.51c0-2.9-.59-4.69-1.78-5.39a11.85,11.85,0,0,0-5.72-1v45.29Zm20.19-62.49h4.8q4.11,0,4.11-9c0-3.88-.3-6.41-.9-7.62a3.43,3.43,0,0,0-3.38-1.8h-4.63Z" style="fill:#fff"/><path d="M55.71,255q-13.59,0-19.6-6.77t-6-21.55V217H49.73v12.41a11.46,11.46,0,0,0,1.05,5.39,3.75,3.75,0,0,0,3.63,1.94c1.81,0,3.06-.52,3.76-1.57a9.85,9.85,0,0,0,1-5.19,27.66,27.66,0,0,0-.9-7.65,17.14,17.14,0,0,0-3.13-5.86A66.47,66.47,0,0,0,49,210l-8.91-8.46q-10-9.42-10-21.55,0-12.69,5.9-19.34t17.06-6.66q13.65,0,19.38,7.28t5.72,22.11H58V176.5a4.2,4.2,0,0,0-1.16-3.15,4.25,4.25,0,0,0-3.13-1.13,4.27,4.27,0,0,0-3.47,1.32,5.2,5.2,0,0,0-1.1,3.42,10.81,10.81,0,0,0,1.13,4.51,19.84,19.84,0,0,0,4.46,5.58l11.45,11A65.06,65.06,0,0,1,72.46,205a30.21,30.21,0,0,1,4.63,8.46,34.62,34.62,0,0,1,1.75,11.76q0,14-5.16,21.92T55.71,255Z" style="fill:#fff"/><path d="M108.56,255q-10.77,0-17.34-6.71t-6.57-18.78V183.72q0-14.43,5.72-22.11T109,153.94a29.13,29.13,0,0,1,12.56,2.6,19.86,19.86,0,0,1,8.65,7.75q3.17,5.16,3.16,13v17.15H113.64V179.78c0-3-.38-5-1.13-6a4,4,0,0,0-3.5-1.55,3.73,3.73,0,0,0-3.72,2,12.43,12.43,0,0,0-1,5.33v49.69c0,2.75.41,4.68,1.22,5.81a4,4,0,0,0,3.46,1.69,3.68,3.68,0,0,0,3.59-2.08,12.23,12.23,0,0,0,1-5.42V211.36h20v18.79q0,13.08-6.6,19T108.56,255Z" style="fill:#fff"/></svg>