<?xml version="1.0" standalone="no"?>
<!DOCTYPE svg PUBLIC "-//W3C//DTD SVG 20010904//EN"
 "http://www.w3.org/TR/2001/REC-SVG-20010904/DTD/svg10.dtd">
<svg version="1.0" xmlns="http://www.w3.org/2000/svg"
 width="700.000000pt" height="700.000000pt" viewBox="0 0 700.000000 700.000000"
 preserveAspectRatio="xMidYMid meet">
<metadata>
Created by potrace 1.14, written by Peter Selinger 2001-2017
</metadata>
<g transform="translate(0.000000,700.000000) scale(0.100000,-0.100000)"
fill="#000000" stroke="none">
<path d="M0 3500 l0 -3500 3500 0 3500 0 0 3500 0 3500 -3500 0 -3500 0 0
-3500z m1760 2195 l0 -225 -230 0 -230 0 0 -185 0 -185 215 0 215 0 0 -220 0
-220 -215 0 -215 0 0 -525 0 -525 -235 0 -235 0 0 1155 0 1155 465 0 465 0 0
-225z m1047 196 c65 -29 137 -104 169 -177 48 -108 76 -394 55 -563 -21 -168
-63 -249 -157 -306 l-49 -29 50 -26 c56 -28 87 -68 112 -144 15 -45 18 -112
21 -543 l3 -493 -230 0 -230 0 -3 493 c-3 538 -2 526 -62 547 -16 5 -49 10
-72 10 l-44 0 0 -525 0 -525 -230 0 -230 0 0 1155 0 1156 423 -3 c419 -3 422
-3 474 -27z m-1369 -2506 c236 -55 363 -240 379 -557 l6 -108 -237 0 -236 0 0
103 c-1 64 -5 108 -13 118 -37 48 -115 53 -158 10 -25 -25 -29 -37 -29 -82 0
-94 22 -124 275 -374 287 -285 344 -363 390 -531 22 -85 30 -251 16 -371 -46
-398 -220 -559 -581 -540 -126 6 -214 27 -293 70 -185 98 -257 286 -257 675
l0 142 230 0 230 0 0 -174 c0 -180 7 -224 43 -263 23 -26 92 -32 129 -12 44
24 61 144 38 270 -23 123 -54 166 -305 414 -250 248 -283 290 -331 430 -25 72
-28 93 -28 210 1 192 40 322 129 431 114 139 357 195 603 139z m1292 1 c144
-40 267 -134 322 -248 50 -102 58 -160 58 -430 l0 -248 -229 0 -230 0 -3 228
c-2 177 -6 232 -17 249 -32 48 -116 59 -155 19 -44 -43 -47 -91 -44 -762 3
-578 4 -632 21 -661 21 -40 45 -53 95 -53 47 0 75 27 91 85 6 23 11 136 11
273 l0 232 236 0 237 0 -6 -287 c-4 -250 -7 -298 -26 -366 -27 -104 -64 -168
-128 -227 -94 -86 -210 -127 -383 -136 -305 -17 -521 135 -585 410 -14 59 -15
160 -13 769 4 779 2 751 73 902 73 153 188 237 365 265 74 12 242 4 310 -14z"/>
<path d="M2380 5285 l0 -215 70 0 c81 0 102 14 119 77 14 50 14 251 0 292 -15
42 -55 61 -129 61 l-60 0 0 -215z"/>
</g>
</svg>
